<?xml version="1.0" encoding="UTF-8" standalone="no"?>
<svg
   width="444.996"
   height="444.996"
   version="1.1"
   id="svg12"
   sodipodi:docname="flag.svg"
   inkscape:version="1.1.2 (0a00cf5339, 2022-02-04)"
   xmlns:inkscape="http://www.inkscape.org/namespaces/inkscape"
   xmlns:sodipodi="http://sodipodi.sourceforge.net/DTD/sodipodi-0.dtd"
   xmlns="http://www.w3.org/2000/svg"
   xmlns:svg="http://www.w3.org/2000/svg"
   xmlns:rdf="http://www.w3.org/1999/02/22-rdf-syntax-ns#"
   xmlns:cc="http://creativecommons.org/ns#"
   xmlns:dc="http://purl.org/dc/elements/1.1/">
  <defs
     id="defs16" />
  <sodipodi:namedview
     id="namedview14"
     pagecolor="#ffffff"
     bordercolor="#666666"
     borderopacity="1.0"
     inkscape:pageshadow="2"
     inkscape:pageopacity="0.0"
     inkscape:pagecheckerboard="0"
     showgrid="false"
     fit-margin-top="0"
     fit-margin-left="0"
     fit-margin-right="0"
     fit-margin-bottom="0"
     inkscape:zoom="0.42367481"
     inkscape:cx="221.86827"
     inkscape:cy="223.04843"
     inkscape:window-width="1280"
     inkscape:window-height="736"
     inkscape:window-x="0"
     inkscape:window-y="0"
     inkscape:window-maximized="1"
     inkscape:current-layer="svg12" />
  <metadata
     id="metadata2">
    <rdf:RDF>
      <cc:Work
         rdf:about="">
        <dc:format>image/svg+xml</dc:format>
        <dc:type
           rdf:resource="http://purl.org/dc/dcmitype/StillImage" />
      </cc:Work>
    </rdf:RDF>
  </metadata>
  <g
     transform="matrix(1.2361,0,0,1.2361,-333.747,-148.332)"
     id="g10">
    <circle
       cx="450"
       cy="300"
       r="180"
       fill="#ffffff"
       id="circle6" />
    <path
       d="m 450,120 c -99.36,0 -180,80.64 -180,180 0,99.36 80.64,180 180,180 99.36,0 180,-80.64 180,-180 0,-99.36 -80.64,-180 -180,-180 z m -8.4949,14.923 c 0.10128,-0.005 0.20481,0.005 0.30612,0 l 0.76531,12.207 c -10.382,0.49498 -20.487,2.009 -30.23,4.477 l 3.023,11.901 c -25.573,6.4776 -48.351,19.945 -66.199,38.265 l -8.7628,-8.5714 c -7.1269,7.3116 -13.499,15.343 -19.056,23.954 l -10.255,-6.773 c 28.009,-43.306 75.717,-72.684 130.41,-75.459 z m 16.684,0 c 54.818,2.6816 102.65,32.073 130.71,75.459 l -10.255,6.773 c -5.545,-8.5894 -11.911,-16.62 -19.018,-23.916 l -8.7627,8.5332 c -17.851,-18.33 -40.655,-31.786 -66.237,-38.265 l 3.023,-11.901 c -9.7428,-2.468 -19.848,-3.9821 -30.23,-4.477 z m -8.1888,53.954 c 5.2041,-0.0119 10.408,0.30612 14.694,0.91838 l -6.6964,55.714 c 14.076,2.0526 26.417,9.4193 34.936,20.013 l 44.694,-33.52 c 5.4289,6.7631 11.583,17.373 14.809,25.408 l -51.352,21.964 c 2.5811,6.3771 4.0179,13.326 4.0179,20.625 0,7.0318 -1.3073,13.751 -3.7118,19.936 l 50.931,21.773 c -3.1426,8.083 -9.2329,18.674 -14.579,25.485 l -44.388,-33.214 c -8.5082,10.835 -20.991,18.402 -35.242,20.51 l 6.5816,54.796 c -8.5714,1.32 -20.816,1.301 -29.388,0.0765 l 6.5816,-54.872 c -14.262,-2.1097 -26.734,-9.7004 -35.242,-20.548 l -44.273,33.214 c -5.4288,-6.7631 -11.583,-17.373 -14.809,-25.408 l 51.046,-21.849 c -2.3963,-6.1758 -3.7117,-12.879 -3.7117,-19.898 0,-7.3116 1.4282,-14.277 4.0178,-20.663 l -51.237,-21.888 c 3.1426,-8.083 9.2329,-18.674 14.579,-25.485 l 44.809,33.559 c 8.5195,-10.593 20.861,-17.96 34.936,-20.013 l -6.6964,-55.638 c 4.2857,-0.65999 9.4898,-0.98296 14.694,-0.9949 z m -147.09,35.663 11.02,5.4337 c -4.648,9.011 -8.4483,18.525 -11.25,28.469 l 11.786,3.3291 c -3.4263,12.159 -5.2806,24.977 -5.2806,38.227 0,13.263 1.8479,26.096 5.2806,38.265 l -11.786,3.3291 c 2.7997,9.9286 6.6077,19.434 11.25,28.431 l -11.02,5.4337 c -11.639,-22.627 -18.214,-48.279 -18.214,-75.459 0,-27.18 6.5754,-52.832 18.214,-75.459 z m 294.18,0 c 11.639,22.627 18.214,48.279 18.214,75.459 0,27.18 -6.5754,52.832 -18.214,75.459 l -11.02,-5.4337 c 4.6443,-8.9998 8.4494,-18.499 11.25,-28.431 l -11.786,-3.3291 c 3.4327,-12.17 5.2806,-25.002 5.2806,-38.265 0,-13.25 -1.8543,-26.068 -5.2806,-38.227 l 11.786,-3.3291 c -2.8009,-9.9418 -6.6039,-19.461 -11.25,-28.469 z m -275.74,158.3 c 5.5596,8.6109 11.929,16.642 19.056,23.954 l 8.7628,-8.5714 c 17.848,18.32 40.626,31.788 66.199,38.265 l -3.023,11.9 c 9.7428,2.468 19.848,3.9821 30.23,4.4771 l -0.76531,12.207 c -54.818,-2.6816 -102.65,-32.073 -130.71,-75.459 z m 257.33,0 10.217,6.773 c -28.06,43.387 -75.896,72.778 -130.71,75.459 l -0.7653,-12.207 c 10.382,-0.49498 20.487,-2.009 30.23,-4.4771 l -3.023,-11.9 c 25.582,-6.4798 48.387,-19.935 66.237,-38.265 l 8.7627,8.5332 c 7.1159,-7.3054 13.504,-15.315 19.056,-23.916 z"
       id="path8" />
  </g>
</svg>
